<svg width="180" height="52" viewBox="0 0 180 52" fill="none" xmlns="http://www.w3.org/2000/svg">
<path d="M179 46.0024C179 48.7735 176.709 51.0182 173.874 51.0182H6.13243C3.2995 51.0182 1 48.7735 1 46.0024V6.00284C1 3.23301 3.2995 0.980469 6.13243 0.980469H173.873C176.709 0.980469 178.999 3.23301 178.999 6.00284L179 46.0024Z" fill="black"/>
<path d="M173.333 1.04065C176.42 1.04065 178.932 3.48952 178.932 6.49903V45.499C178.932 48.5085 176.42 50.9574 173.333 50.9574H6.66667C3.58 50.9574 1.06833 48.5085 1.06833 45.499V6.49903C1.06833 3.48952 3.58 1.04065 6.66667 1.04065H173.333ZM173.333 -0.000973814H6.66667C3.00167 -0.000973814 0 2.92565 0 6.49903V45.499C0 49.0724 3.00167 51.999 6.66667 51.999H173.333C176.998 51.999 180 49.0724 180 45.499V6.49903C180 2.92565 176.998 -0.000973814 173.333 -0.000973814Z" fill="#A6A6A6"/>
<path d="M40.1705 25.7182C40.1318 21.5283 43.6891 19.4899 43.8518 19.395C41.8371 16.5311 38.7145 16.1398 37.6171 16.1086C34.9945 15.8395 32.4505 17.6387 31.1145 17.6387C29.7518 17.6387 27.6945 16.1346 25.4771 16.1788C22.6238 16.2217 19.9545 17.8324 18.4905 20.3336C15.4691 25.4335 17.7225 32.9279 20.6171 37.0502C22.0651 39.0691 23.7571 41.3233 25.9718 41.244C28.1385 41.1569 28.9478 39.8972 31.5625 39.8972C34.1531 39.8972 34.9131 41.244 37.1718 41.1933C39.4971 41.1569 40.9611 39.1653 42.3585 37.1283C44.0318 34.8143 44.7038 32.5354 44.7305 32.4184C44.6758 32.4002 40.2145 30.7401 40.1705 25.7182Z" fill="white"/>
<path d="M35.9038 13.3968C37.0691 11.9759 37.8665 10.0428 37.6451 8.08105C35.9585 8.15385 33.8491 9.21855 32.6345 10.6083C31.5598 11.8329 30.5998 13.8401 30.8478 15.7277C32.7425 15.8655 34.6878 14.7956 35.9038 13.3968Z" fill="white"/>
<path d="M71.5269 40.9547H68.4989L66.8402 35.873H61.0749L59.4949 40.9547H56.5469L62.2589 23.6543H65.7869L71.5269 40.9547ZM66.3402 33.741L64.8402 29.2235C64.6815 28.762 64.3842 27.6752 63.9455 25.9644H63.8922C63.7175 26.7002 63.4362 27.787 63.0495 29.2235L61.5762 33.741H66.3402Z" fill="white"/>
<path d="M86.2164 34.5637C86.2164 36.6853 85.6284 38.3623 84.4524 39.5934C83.399 40.6893 82.091 41.2366 80.5297 41.2366C78.8444 41.2366 77.6337 40.6464 76.8964 39.466H76.843V46.0375H74.0004V32.5864C74.0004 31.2526 73.9644 29.8837 73.895 28.4797H76.395L76.5537 30.457H76.607C77.555 28.9672 78.9937 28.2236 80.9244 28.2236C82.4337 28.2236 83.6937 28.8047 84.7017 29.9682C85.7124 31.133 86.2164 32.6644 86.2164 34.5637ZM83.3204 34.6651C83.3204 33.4509 83.0404 32.4499 82.4777 31.6621C81.863 30.8405 81.0377 30.4297 80.003 30.4297C79.3017 30.4297 78.6644 30.6585 78.095 31.1096C77.5243 31.5646 77.151 32.1587 76.9763 32.8945C76.8883 33.2377 76.8444 33.5185 76.8444 33.7395V35.8195C76.8444 36.7269 77.1297 37.4926 77.7004 38.1179C78.271 38.7432 79.0124 39.0552 79.9244 39.0552C80.995 39.0552 81.8284 38.6522 82.4244 37.8488C83.0217 37.0441 83.3204 35.9833 83.3204 34.6651Z" fill="white"/>
<path d="M100.932 34.5637C100.932 36.6853 100.344 38.3623 99.167 39.5934C98.115 40.6893 96.807 41.2366 95.2456 41.2366C93.5603 41.2366 92.3496 40.6464 91.6136 39.466H91.5603V46.0375H88.7176V32.5864C88.7176 31.2526 88.6816 29.8837 88.6123 28.4797H91.1123L91.271 30.457H91.3243C92.271 28.9672 93.7096 28.2236 95.6416 28.2236C97.1496 28.2236 98.4096 28.8047 99.4203 29.9682C100.427 31.133 100.932 32.6644 100.932 34.5637ZM98.0363 34.6651C98.0363 33.4509 97.755 32.4499 97.1923 31.6621C96.5776 30.8405 95.755 30.4297 94.719 30.4297C94.0163 30.4297 93.3803 30.6585 92.8096 31.1096C92.239 31.5646 91.867 32.1587 91.6923 32.8945C91.6056 33.2377 91.5603 33.5185 91.5603 33.7395V35.8195C91.5603 36.7269 91.8456 37.4926 92.4136 38.1179C92.9843 38.7419 93.7256 39.0552 94.6403 39.0552C95.711 39.0552 96.5443 38.6522 97.1403 37.8488C97.7376 37.0441 98.0363 35.9833 98.0363 34.6651Z" fill="white"/>
<path d="M117.385 36.1027C117.385 37.5743 116.861 38.7716 115.809 39.6959C114.653 40.706 113.044 41.2104 110.976 41.2104C109.067 41.2104 107.536 40.8516 106.377 40.1327L107.036 37.8226C108.284 38.5584 109.653 38.9276 111.145 38.9276C112.216 38.9276 113.049 38.691 113.648 38.2204C114.244 37.7498 114.541 37.118 114.541 36.3302C114.541 35.6282 114.296 35.0367 113.804 34.557C113.315 34.0773 112.497 33.6314 111.356 33.2193C108.249 32.0896 106.697 30.4347 106.697 28.2585C106.697 26.8363 107.241 25.6702 108.331 24.7628C109.416 23.8541 110.864 23.4004 112.675 23.4004C114.289 23.4004 115.631 23.6747 116.701 24.222L115.991 26.4814C114.991 25.951 113.86 25.6858 112.595 25.6858C111.595 25.6858 110.813 25.9263 110.253 26.4047C109.78 26.8324 109.543 27.3537 109.543 27.9712C109.543 28.655 109.813 29.2205 110.357 29.6651C110.831 30.0759 111.691 30.5205 112.939 31.0002C114.465 31.5995 115.587 32.3002 116.308 33.1036C117.027 33.9044 117.385 34.9067 117.385 36.1027Z" fill="white"/>
<path d="M126.784 30.5594H123.651V36.6161C123.651 38.1566 124.203 38.9262 125.31 38.9262C125.818 38.9262 126.239 38.8833 126.572 38.7975L126.651 40.9022C126.091 41.1063 125.354 41.209 124.44 41.209C123.318 41.209 122.44 40.8749 121.807 40.208C121.176 39.5398 120.859 38.4192 120.859 36.8449V30.5568H118.992V28.4768H120.859V26.1927L123.651 25.3711V28.4768H126.784V30.5594Z" fill="white"/>
<path d="M140.922 34.6141C140.922 36.5316 140.359 38.1059 139.236 39.337C138.059 40.6045 136.496 41.2363 134.548 41.2363C132.671 41.2363 131.176 40.6292 130.062 39.415C128.947 38.2008 128.39 36.6681 128.39 34.8208C128.39 32.8877 128.963 31.3043 130.114 30.0732C131.262 28.8408 132.811 28.2246 134.759 28.2246C136.636 28.2246 138.147 28.8317 139.287 30.0472C140.378 31.2263 140.922 32.7486 140.922 34.6141ZM137.972 34.7038C137.972 33.5533 137.72 32.5666 137.21 31.7437C136.614 30.7479 135.762 30.2513 134.658 30.2513C133.515 30.2513 132.647 30.7492 132.051 31.7437C131.54 32.5679 131.288 33.5702 131.288 34.7558C131.288 35.9063 131.54 36.893 132.051 37.7146C132.666 38.7104 133.524 39.207 134.632 39.207C135.718 39.207 136.57 38.7 137.184 37.6886C137.708 36.8501 137.972 35.853 137.972 34.7038Z" fill="white"/>
<path d="M150.162 30.9172C149.88 30.8665 149.58 30.8405 149.266 30.8405C148.266 30.8405 147.492 31.2084 146.948 31.9455C146.475 32.5955 146.238 33.4171 146.238 34.409V40.9545H143.396L143.423 32.4083C143.423 30.9705 143.387 29.6614 143.316 28.481H145.792L145.896 30.8678H145.975C146.275 30.0475 146.748 29.3871 147.396 28.8918C148.03 28.4459 148.714 28.2236 149.451 28.2236C149.714 28.2236 149.951 28.2418 150.162 28.2743V30.9172Z" fill="white"/>
<path d="M162.875 34.1269C162.875 34.6235 162.842 35.0421 162.771 35.384H154.243C154.276 36.6164 154.688 37.5589 155.48 38.2089C156.199 38.79 157.128 39.0812 158.27 39.0812C159.532 39.0812 160.684 38.8849 161.72 38.491L162.166 40.415C160.955 40.9298 159.526 41.1859 157.876 41.1859C155.892 41.1859 154.335 40.6165 153.202 39.479C152.071 38.3415 151.504 36.814 151.504 34.8978C151.504 33.0167 152.031 31.4502 153.086 30.2009C154.19 28.8671 155.682 28.2002 157.559 28.2002C159.403 28.2002 160.799 28.8671 161.747 30.2009C162.498 31.2604 162.875 32.5708 162.875 34.1269ZM160.164 33.408C160.183 32.5864 159.998 31.8766 159.612 31.2773C159.12 30.5064 158.364 30.1216 157.347 30.1216C156.418 30.1216 155.662 30.4973 155.084 31.2513C154.611 31.8506 154.33 32.5695 154.243 33.4067H160.164V33.408Z" fill="white"/>
<path d="M65.4002 13.0103C65.4002 14.5404 64.9295 15.6922 63.9895 16.4657C63.1189 17.1794 61.8815 17.5369 60.2789 17.5369C59.4842 17.5369 58.8042 17.5031 58.2349 17.4355V9.07524C58.9775 8.95824 59.7775 8.89844 60.6415 8.89844C62.1682 8.89844 63.3189 9.22214 64.0949 9.86954C64.9642 10.6014 65.4002 11.6479 65.4002 13.0103ZM63.9269 13.048C63.9269 12.0561 63.6575 11.2956 63.1189 10.7652C62.5802 10.2361 61.7935 9.97094 60.7575 9.97094C60.3175 9.97094 59.9429 9.99954 59.6322 10.0593V16.415C59.8042 16.441 60.1189 16.4527 60.5762 16.4527C61.6455 16.4527 62.4709 16.1628 63.0522 15.583C63.6335 15.0032 63.9269 14.1582 63.9269 13.048Z" fill="white"/>
<path d="M73.2122 14.3472C73.2122 15.2897 72.9362 16.0619 72.3842 16.6677C71.8055 17.2904 71.0388 17.6011 70.0815 17.6011C69.1588 17.6011 68.4242 17.3034 67.8762 16.7054C67.3295 16.1087 67.0562 15.356 67.0562 14.4486C67.0562 13.4996 67.3375 12.7209 67.9028 12.1164C68.4682 11.5119 69.2282 11.209 70.1855 11.209C71.1082 11.209 71.8495 11.5067 72.4108 12.1034C72.9442 12.6832 73.2122 13.432 73.2122 14.3472ZM71.7628 14.3914C71.7628 13.8259 71.6375 13.341 71.3882 12.9367C71.0948 12.4479 70.6775 12.2035 70.1348 12.2035C69.5735 12.2035 69.1468 12.4479 68.8535 12.9367C68.6028 13.341 68.4788 13.8337 68.4788 14.4161C68.4788 14.9816 68.6042 15.4665 68.8535 15.8708C69.1562 16.3596 69.5775 16.604 70.1215 16.604C70.6548 16.604 71.0735 16.3557 71.3748 15.8578C71.6335 15.4457 71.7628 14.9569 71.7628 14.3914Z" fill="white"/>
<path d="M83.6867 11.333L81.7201 17.4612H80.4401L79.6254 14.8001C79.4187 14.1358 79.2507 13.4754 79.1201 12.8202H79.0947C78.9734 13.4936 78.8054 14.1527 78.5894 14.8001L77.7241 17.4612H76.4294L74.5801 11.333H76.0161L76.7267 14.2463C76.8987 14.9353 77.0401 15.5918 77.1534 16.2132H77.1787C77.2827 15.701 77.4547 15.0484 77.6974 14.2593L78.5894 11.3343H79.7281L80.5827 14.1969C80.7894 14.895 80.9574 15.5671 81.0867 16.2145H81.1254C81.2201 15.584 81.3627 14.9119 81.5521 14.1969L82.3147 11.3343H83.6867V11.333Z" fill="white"/>
<path d="M90.9307 17.462H89.5334V13.952C89.5334 12.8704 89.112 12.3296 88.2667 12.3296C87.852 12.3296 87.5174 12.4778 87.2574 12.7755C87 13.0732 86.8694 13.4242 86.8694 13.8259V17.4607H85.472V13.0849C85.472 12.5467 85.4547 11.963 85.4214 11.3312H86.6494L86.7147 12.2893H86.7534C86.9161 11.9916 87.1587 11.7459 87.4774 11.5496C87.856 11.3208 88.28 11.2051 88.744 11.2051C89.3307 11.2051 89.8187 11.3897 90.2067 11.7602C90.6894 12.2139 90.9307 12.8912 90.9307 13.7908V17.462Z" fill="white"/>
<path d="M94.7842 17.4616H93.3882V8.52148H94.7842V17.4616Z" fill="white"/>
<path d="M103.011 14.3472C103.011 15.2897 102.735 16.0619 102.183 16.6677C101.604 17.2904 100.836 17.6011 99.8803 17.6011C98.9563 17.6011 98.2216 17.3034 97.675 16.7054C97.1283 16.1087 96.855 15.356 96.855 14.4486C96.855 13.4996 97.1363 12.7209 97.7017 12.1164C98.267 11.5119 99.027 11.209 99.983 11.209C100.907 11.209 101.647 11.5067 102.21 12.1034C102.743 12.6832 103.011 13.432 103.011 14.3472ZM101.56 14.3914C101.56 13.8259 101.435 13.341 101.186 12.9367C100.894 12.4479 100.475 12.2035 99.9336 12.2035C99.371 12.2035 98.9443 12.4479 98.6523 12.9367C98.4016 13.341 98.2776 13.8337 98.2776 14.4161C98.2776 14.9816 98.403 15.4665 98.6523 15.8708C98.955 16.3596 99.3763 16.604 99.9203 16.604C100.454 16.604 100.871 16.3557 101.172 15.8578C101.432 15.4457 101.56 14.9569 101.56 14.3914Z" fill="white"/>
<path d="M109.774 17.462H108.519L108.415 16.7561H108.376C107.947 17.319 107.335 17.6011 106.54 17.6011C105.947 17.6011 105.467 17.4152 105.106 17.046C104.778 16.7106 104.614 16.2933 104.614 15.798C104.614 15.0492 104.934 14.4785 105.578 14.0833C106.22 13.6881 107.124 13.4944 108.288 13.5035V13.3891C108.288 12.5818 107.854 12.1788 106.983 12.1788C106.363 12.1788 105.816 12.3309 105.344 12.6325L105.06 11.7381C105.644 11.3858 106.366 11.209 107.216 11.209C108.859 11.209 109.683 12.054 109.683 13.744V16.0008C109.683 16.6131 109.714 17.1006 109.774 17.462ZM108.323 15.356V14.4109C106.782 14.3849 106.011 14.797 106.011 15.6459C106.011 15.9657 106.099 16.2049 106.279 16.3648C106.459 16.5247 106.688 16.604 106.962 16.604C107.268 16.604 107.555 16.5091 107.816 16.3206C108.079 16.1308 108.24 15.8903 108.3 15.5952C108.315 15.5289 108.323 15.4483 108.323 15.356Z" fill="white"/>
<path d="M117.713 17.4616H116.473L116.408 16.4775H116.369C115.973 17.2263 115.299 17.6007 114.351 17.6007C113.593 17.6007 112.963 17.3108 112.463 16.731C111.963 16.1512 111.713 15.3985 111.713 14.4742C111.713 13.4823 111.984 12.6789 112.528 12.0653C113.055 11.4933 113.7 11.2073 114.468 11.2073C115.312 11.2073 115.903 11.4842 116.239 12.0393H116.265V8.52148H117.664V15.8106C117.664 16.4073 117.68 16.9572 117.713 17.4616ZM116.265 14.8772V13.8554C116.265 13.6786 116.252 13.5356 116.227 13.4264C116.148 13.0988 115.979 12.8232 115.721 12.6009C115.461 12.3786 115.148 12.2668 114.787 12.2668C114.265 12.2668 113.857 12.4683 113.557 12.8726C113.26 13.2769 113.109 13.793 113.109 14.4235C113.109 15.0293 113.252 15.5207 113.539 15.899C113.841 16.302 114.249 16.5035 114.76 16.5035C115.219 16.5035 115.585 16.3358 115.864 15.9991C116.133 15.6884 116.265 15.314 116.265 14.8772Z" fill="white"/>
<path d="M129.664 14.3472C129.664 15.2897 129.388 16.0619 128.836 16.6677C128.258 17.2904 127.492 17.6011 126.534 17.6011C125.612 17.6011 124.878 17.3034 124.328 16.7054C123.782 16.1087 123.508 15.356 123.508 14.4486C123.508 13.4996 123.79 12.7209 124.355 12.1164C124.92 11.5119 125.68 11.209 126.639 11.209C127.56 11.209 128.303 11.5067 128.863 12.1034C129.396 12.6832 129.664 13.432 129.664 14.3472ZM128.216 14.3914C128.216 13.8259 128.091 13.341 127.842 12.9367C127.547 12.4479 127.131 12.2035 126.587 12.2035C126.027 12.2035 125.6 12.4479 125.306 12.9367C125.055 13.341 124.931 13.8337 124.931 14.4161C124.931 14.9816 125.056 15.4665 125.306 15.8708C125.608 16.3596 126.03 16.604 126.574 16.604C127.107 16.604 127.527 16.3557 127.828 15.8578C128.086 15.4457 128.216 14.9569 128.216 14.3914Z" fill="white"/>
<path d="M137.177 17.462H135.781V13.952C135.781 12.8704 135.36 12.3296 134.513 12.3296C134.099 12.3296 133.764 12.4778 133.505 12.7755C133.247 13.0732 133.117 13.4242 133.117 13.8259V17.4607H131.719V13.0849C131.719 12.5467 131.703 11.963 131.669 11.3312H132.896L132.961 12.2893H133C133.164 11.9916 133.407 11.7459 133.724 11.5496C134.104 11.3208 134.527 11.2051 134.992 11.2051C135.577 11.2051 136.065 11.3897 136.453 11.7602C136.937 12.2139 137.177 12.8912 137.177 13.7908V17.462Z" fill="white"/>
<path d="M146.581 12.3543H145.043V15.3313C145.043 16.0879 145.316 16.4662 145.857 16.4662C146.108 16.4662 146.316 16.4454 146.48 16.4025L146.516 17.436C146.24 17.5374 145.877 17.5881 145.431 17.5881C144.879 17.5881 144.449 17.4243 144.139 17.0967C143.827 16.7691 143.672 16.2179 143.672 15.4444V12.3543H142.753V11.3338H143.672V10.2106L145.041 9.80762V11.3325H146.58V12.3543H146.581Z" fill="white"/>
<path d="M153.979 17.4616H152.58V13.9776C152.58 12.8791 152.159 12.3292 151.315 12.3292C150.667 12.3292 150.224 12.6477 149.981 13.2847C149.94 13.4186 149.916 13.5824 149.916 13.7748V17.4603H148.52V8.52148H149.916V12.2148H149.943C150.383 11.5427 151.013 11.2073 151.831 11.2073C152.409 11.2073 152.888 11.3919 153.268 11.7624C153.741 12.2239 153.979 12.9103 153.979 13.8177V17.4616Z" fill="white"/>
<path d="M161.609 14.108C161.609 14.3524 161.591 14.5578 161.557 14.7255H157.367C157.385 15.3313 157.585 15.7928 157.973 16.1126C158.328 16.3986 158.785 16.5416 159.345 16.5416C159.965 16.5416 160.531 16.4454 161.04 16.2517L161.259 17.1981C160.663 17.4503 159.961 17.5764 159.149 17.5764C158.176 17.5764 157.409 17.2969 156.855 16.7379C156.297 16.1789 156.021 15.4288 156.021 14.4876C156.021 13.5633 156.279 12.7937 156.797 12.1801C157.339 11.5249 158.071 11.1973 158.995 11.1973C159.899 11.1973 160.585 11.5249 161.049 12.1801C161.424 12.7001 161.609 13.3436 161.609 14.108ZM160.276 13.7557C160.287 13.3514 160.195 13.003 160.005 12.7092C159.763 12.3309 159.393 12.1411 158.893 12.1411C158.437 12.1411 158.065 12.3257 157.781 12.6962C157.549 12.9913 157.412 13.3436 157.367 13.7557H160.276Z" fill="white"/>
</svg>
