<svg width="180" height="52" viewBox="0 0 180 52" fill="none" xmlns="http://www.w3.org/2000/svg">
<path d="M173.095 51.999H6.6575C2.99754 51.999 0 49.0724 0 45.499V6.49903C0 2.92565 2.99754 -0.000973814 6.6575 -0.000973814H173.095C176.755 -0.000973814 179.753 2.92565 179.753 6.49903V45.499C179.753 49.0724 176.755 51.999 173.095 51.999Z" fill="black"/>
<path d="M173.095 1.04065C176.177 1.04065 178.686 3.48952 178.686 6.49903V45.499C178.686 48.5085 176.177 50.9574 173.095 50.9574H6.6575C3.57508 50.9574 1.06686 48.5085 1.06686 45.499V6.49903C1.06686 3.48952 3.57508 1.04065 6.6575 1.04065H173.095ZM173.095 -0.000973814H6.6575C2.99754 -0.000973814 0 2.92565 0 6.49903V45.499C0 49.0724 2.99754 51.999 6.6575 51.999H173.095C176.755 51.999 179.753 49.0724 179.753 45.499V6.49903C179.753 2.92565 176.755 -0.000973814 173.095 -0.000973814Z" fill="#A6A6A6"/>
<path d="M63.1366 13.3162C63.1366 14.4017 62.8037 15.2711 62.1479 15.9195C61.394 16.6881 60.412 17.0748 59.2087 17.0748C58.0586 17.0748 57.0766 16.6816 56.271 15.9065C55.4638 15.12 55.061 14.1547 55.061 12.9993C55.061 11.844 55.4638 10.8787 56.271 10.0987C57.0766 9.31708 58.0586 8.92383 59.2087 8.92383C59.7812 8.92383 60.3271 9.0392 60.8481 9.2537C61.3674 9.46983 61.7901 9.76233 62.0963 10.1231L61.4006 10.8088C60.8664 10.193 60.139 9.88908 59.2087 9.88908C58.3698 9.88908 57.6425 10.1751 57.025 10.752C56.4142 11.3305 56.1079 12.0796 56.1079 12.9993C56.1079 13.9191 56.4142 14.6747 57.025 15.2532C57.6425 15.8236 58.3698 16.1161 59.2087 16.1161C60.0991 16.1161 60.8481 15.8236 61.4389 15.2467C61.8284 14.8648 62.0498 14.3383 62.108 13.6656H59.2087V12.7263H63.0767C63.1233 12.9295 63.1366 13.1261 63.1366 13.3162Z" fill="white" stroke="white" stroke-width="0.16" stroke-miterlimit="10"/>
<path d="M69.2728 10.0597H65.6394V12.5297H68.9149V13.4689H65.6394V15.9389H69.2728V16.896H64.6108V9.10254H69.2728V10.0597Z" fill="white" stroke="white" stroke-width="0.16" stroke-miterlimit="10"/>
<path d="M73.6039 16.896H72.5753V10.0597H70.3467V9.10254H75.8341V10.0597H73.6039V16.896Z" fill="white" stroke="white" stroke-width="0.16" stroke-miterlimit="10"/>
<path d="M79.8052 16.896V9.10254H80.8321V16.896H79.8052Z" fill="white" stroke="white" stroke-width="0.16" stroke-miterlimit="10"/>
<path d="M85.3841 16.896H84.3639V10.0597H82.127V9.10254H87.621V10.0597H85.3841V16.896Z" fill="white" stroke="white" stroke-width="0.16" stroke-miterlimit="10"/>
<path d="M98.0099 15.8935C97.2227 16.6816 96.2474 17.0748 95.084 17.0748C93.9139 17.0748 92.9386 16.6816 92.1513 15.8935C91.3657 15.107 90.9746 14.1417 90.9746 12.9993C90.9746 11.857 91.3657 10.8917 92.1513 10.1052C92.9386 9.31708 93.9139 8.92383 95.084 8.92383C96.2407 8.92383 97.216 9.31708 98.0033 10.1117C98.7955 10.9047 99.1866 11.8635 99.1866 12.9993C99.1866 14.1417 98.7955 15.107 98.0099 15.8935ZM92.9119 15.2402C93.5045 15.8236 94.2251 16.1161 95.084 16.1161C95.9361 16.1161 96.6634 15.8236 97.2493 15.2402C97.8402 14.6568 98.1397 13.9077 98.1397 12.9993C98.1397 12.091 97.8402 11.3418 97.2493 10.7585C96.6634 10.1751 95.9361 9.88258 95.084 9.88258C94.2251 9.88258 93.5045 10.1751 92.9119 10.7585C92.3211 11.3418 92.0215 12.091 92.0215 12.9993C92.0215 13.9077 92.3211 14.6568 92.9119 15.2402Z" fill="white" stroke="white" stroke-width="0.16" stroke-miterlimit="10"/>
<path d="M100.63 16.896V9.10254H101.878L105.759 15.1638H105.804L105.759 13.6655V9.10254H106.786V16.896H105.715L101.65 10.5358H101.605L101.65 12.0405V16.896H100.63Z" fill="white" stroke="white" stroke-width="0.16" stroke-miterlimit="10"/>
<path d="M90.7215 28.2773C87.5942 28.2773 85.0394 30.6011 85.0394 33.8072C85.0394 36.9873 87.5942 39.3354 90.7215 39.3354C93.8555 39.3354 96.4104 36.9873 96.4104 33.8072C96.4104 30.6011 93.8555 28.2773 90.7215 28.2773ZM90.7215 37.1579C89.0056 37.1579 87.5293 35.7751 87.5293 33.8072C87.5293 31.8133 89.0056 30.4548 90.7215 30.4548C92.4375 30.4548 93.9205 31.8133 93.9205 33.8072C93.9205 35.7751 92.4375 37.1579 90.7215 37.1579ZM78.3236 28.2773C75.1896 28.2773 72.6414 30.6011 72.6414 33.8072C72.6414 36.9873 75.1896 39.3354 78.3236 39.3354C81.4559 39.3354 84.0058 36.9873 84.0058 33.8072C84.0058 30.6011 81.4559 28.2773 78.3236 28.2773ZM78.3236 37.1579C76.606 37.1579 75.1247 35.7751 75.1247 33.8072C75.1247 31.8133 76.606 30.4548 78.3236 30.4548C80.0396 30.4548 81.5159 31.8133 81.5159 33.8072C81.5159 35.7751 80.0396 37.1579 78.3236 37.1579ZM63.5706 29.9722V32.3219H69.3177C69.1496 33.6349 68.7002 34.6002 68.0111 35.2729C67.1723 36.0854 65.8657 36.9873 63.5706 36.9873C60.0338 36.9873 57.2643 34.2004 57.2643 30.7473C57.2643 27.2942 60.0338 24.5073 63.5706 24.5073C65.4829 24.5073 66.8744 25.2369 67.9013 26.1827L69.5973 24.5268C68.1609 23.1878 66.2502 22.1592 63.5706 22.1592C58.7206 22.1592 54.6445 26.0121 54.6445 30.7473C54.6445 35.4826 58.7206 39.3354 63.5706 39.3354C66.192 39.3354 68.1609 38.4969 69.7088 36.9239C71.2949 35.3753 71.7893 33.1978 71.7893 31.4396C71.7893 30.8936 71.7427 30.3914 71.6594 29.9722H63.5706ZM123.898 31.7938C123.43 30.5572 121.987 28.2773 119.048 28.2773C116.135 28.2773 113.71 30.5182 113.71 33.8072C113.71 36.9044 116.11 39.3354 119.327 39.3354C121.929 39.3354 123.43 37.7868 124.047 36.8849L122.117 35.6288C121.473 36.5486 120.595 37.1579 119.327 37.1579C118.067 37.1579 117.163 36.5941 116.584 35.4826L124.159 32.4227L123.898 31.7938ZM116.175 33.6349C116.11 31.5029 117.871 30.4109 119.132 30.4109C120.121 30.4109 120.96 30.8936 121.24 31.5842L116.175 33.6349ZM110.018 38.9991H112.508V22.7491H110.018V38.9991ZM105.941 29.5091H105.857C105.298 28.8623 104.231 28.2773 102.88 28.2773C100.044 28.2773 97.4506 30.7083 97.4506 33.8251C97.4506 36.9239 100.044 39.3354 102.88 39.3354C104.231 39.3354 105.298 38.7456 105.857 38.0793H105.941V38.8723C105.941 40.9864 104.784 42.1223 102.918 42.1223C101.397 42.1223 100.453 41.0498 100.064 40.1479L97.8983 41.0303C98.5225 42.4961 100.175 44.2998 102.918 44.2998C105.837 44.2998 108.301 42.6228 108.301 38.5424V28.6137H105.941V29.5091ZM103.093 37.1579C101.377 37.1579 99.9405 35.7556 99.9405 33.8251C99.9405 31.8767 101.377 30.4548 103.093 30.4548C104.784 30.4548 106.117 31.8767 106.117 33.8251C106.117 35.7556 104.784 37.1579 103.093 37.1579ZM135.555 22.7491H129.6V38.9991H132.083V32.8419H135.555C138.313 32.8419 141.017 30.8936 141.017 27.7947C141.017 24.6974 138.306 22.7491 135.555 22.7491ZM135.62 30.5816H132.083V25.0094H135.62C137.474 25.0094 138.532 26.5126 138.532 27.7947C138.532 29.0524 137.474 30.5816 135.62 30.5816ZM150.97 28.2464C149.176 28.2464 147.31 29.0199 146.543 30.7343L148.747 31.6362C149.221 30.7343 150.093 30.4418 151.015 30.4418C152.303 30.4418 153.61 31.1974 153.63 32.5316V32.7022C153.181 32.4487 152.219 32.0733 151.035 32.0733C148.662 32.0733 146.243 33.3489 146.243 35.7296C146.243 37.9071 148.187 39.3094 150.373 39.3094C152.044 39.3094 152.966 38.5733 153.545 37.7169H153.63V38.9731H156.028V32.7396C156.028 29.8584 153.825 28.2464 150.97 28.2464ZM150.671 37.1514C149.858 37.1514 148.727 36.7582 148.727 35.7751C148.727 34.5173 150.138 34.0347 151.36 34.0347C152.453 34.0347 152.966 34.2703 153.63 34.5807C153.435 36.0854 152.109 37.1514 150.671 37.1514ZM164.766 28.6023L161.912 35.6467H161.827L158.876 28.6023H156.198L160.632 38.4466L158.102 43.9244H160.697L167.529 28.6023H164.766ZM142.382 38.9991H144.872V22.7491H142.382V38.9991Z" fill="white"/>
<path d="M13.8943 9.79947C13.5032 10.1992 13.2769 10.8216 13.2769 11.6276V40.3771C13.2769 41.1831 13.5032 41.8055 13.8943 42.2052L13.9909 42.293L30.4915 26.1892V25.809L13.9909 9.70522L13.8943 9.79947Z" fill="url(#paint0_linear)"/>
<path d="M35.9853 31.5596L30.4912 26.1889V25.8087L35.992 20.4381L36.1151 20.5079L42.6295 24.1268C44.4886 25.1538 44.4886 26.8438 42.6295 27.8773L36.1151 31.4897L35.9853 31.5596Z" fill="url(#paint1_linear)"/>
<path d="M36.1151 31.4902L30.4912 25.9994L13.894 42.2055C14.5115 42.8392 15.5185 42.9156 16.6636 42.2819L36.1151 31.4902Z" fill="url(#paint2_linear)"/>
<path d="M36.1151 20.5082L16.6636 9.71653C15.5185 9.08928 14.5115 9.16565 13.894 9.7994L30.4912 25.999L36.1151 20.5082Z" fill="url(#paint3_linear)"/>
<defs>
<linearGradient id="paint0_linear" x1="29.0264" y1="40.6765" x2="7.21556" y2="18.3371" gradientUnits="userSpaceOnUse">
<stop stop-color="#00A0FF"/>
<stop offset="0.0066" stop-color="#00A1FF"/>
<stop offset="0.2601" stop-color="#00BEFF"/>
<stop offset="0.5122" stop-color="#00D2FF"/>
<stop offset="0.7604" stop-color="#00DFFF"/>
<stop offset="1" stop-color="#00E3FF"/>
</linearGradient>
<linearGradient id="paint1_linear" x1="45.0504" y1="25.997" x2="12.8322" y2="25.997" gradientUnits="userSpaceOnUse">
<stop stop-color="#FFE000"/>
<stop offset="0.4087" stop-color="#FFBD00"/>
<stop offset="0.7754" stop-color="#FFA500"/>
<stop offset="1" stop-color="#FF9C00"/>
</linearGradient>
<linearGradient id="paint2_linear" x1="33.057" y1="23.0144" x2="3.47969" y2="-7.27957" gradientUnits="userSpaceOnUse">
<stop stop-color="#FF3A44"/>
<stop offset="1" stop-color="#C31162"/>
</linearGradient>
<linearGradient id="paint3_linear" x1="9.71619" y1="51.77" x2="22.9238" y2="38.2425" gradientUnits="userSpaceOnUse">
<stop stop-color="#32A071"/>
<stop offset="0.0685" stop-color="#2DA771"/>
<stop offset="0.4762" stop-color="#15CF74"/>
<stop offset="0.8009" stop-color="#06E775"/>
<stop offset="1" stop-color="#00F076"/>
</linearGradient>
</defs>
</svg>
